Coordinates
version=1
nRows=38
nColumns=12
inDegrees=yes

Units are S.I. units (second, meters, Newtons, ...)
Angles are in degrees

endheader
time	SC_y	SC_z	SC_x	AC_y	AC_z	AC_x	GH_y	GH_z	GH_yy	EL_x	PS_y
       0.0              -25.69          33.09          10.96          65.56          -4.88         0.5073           61.6          0.196         -92.87          109.7          86.46
   0.04999              -25.68          33.09          10.96          65.56         -4.881         0.5089          61.58         0.1996         -92.84          109.7          86.46
   0.09997              -25.68          33.09          10.97          65.56         -4.883         0.5105          61.56         0.2035          -92.8          109.7          86.45
      0.15              -25.68          33.09          10.97          65.55         -4.886         0.5123          61.54         0.2077         -92.77          109.7          86.44
    0.1999              -25.68          33.09          10.98          65.55         -4.888         0.5142          61.52         0.2121         -92.73          109.7          86.44
    0.2499              -25.67          33.09          10.99          65.55          -4.89         0.5162           61.5         0.2167         -92.69          109.7          86.43
    0.2999              -25.67          33.09           11.0          65.54         -4.893         0.5183          61.47         0.2218         -92.64          109.6          86.42
    0.3499              -25.67          33.09          11.01          65.54         -4.896         0.5206          61.45         0.2271          -92.6          109.6          86.41
    0.3999              -25.67          33.09          11.01          65.53         -4.899         0.5231          61.42         0.2328         -92.55          109.6           86.4
    0.4499              -25.66          33.09          11.02          65.53         -4.902         0.5257          61.39          0.239         -92.49          109.6          86.39
    0.4999              -25.66          33.09          11.04          65.52         -4.905         0.5285          61.36         0.2456         -92.43          109.6          86.38
    0.5498              -25.65          33.09          11.05          65.52         -4.909         0.5316          61.33         0.2527         -92.37          109.6          86.37
    0.5998              -25.65          33.09          11.06          65.51         -4.913         0.5348          61.29         0.2604          -92.3          109.5          86.36
    0.6498              -25.65          33.09          11.07          65.51         -4.917         0.5384          61.25         0.2687         -92.23          109.5          86.34
    0.6998              -25.64          33.09          11.09           65.5         -4.922         0.5422          61.21         0.2776         -92.15          109.5          86.33
    0.7498              -25.63          33.09           11.1          65.49         -4.927         0.5464          61.17         0.2873         -92.07          109.5          86.31
    0.7998              -25.63          33.09          11.12          65.48         -4.932         0.5509          61.12         0.2979         -91.98          109.4           86.3
    0.8498              -25.62          33.09          11.14          65.47         -4.938         0.5558          61.06         0.3094         -91.87          109.4          86.28
    0.8997              -25.61          33.09          11.16          65.47         -4.945         0.5612           61.0          0.322         -91.76          109.4          86.26
    0.9497              -25.61          33.09          11.18          65.45         -4.952         0.5671          60.94         0.3357         -91.64          109.3          86.23
    0.9997               -25.6          33.09          11.21          65.44          -4.96         0.5735          60.87         0.3508         -91.51          109.3          86.21
      1.05              -25.59          33.09          11.23          65.43         -4.969         0.5806          60.79         0.3675         -91.37          109.2          86.18
       1.1              -25.58          33.09          11.26          65.42         -4.978         0.5885           60.7         0.3858          -91.2          109.2          86.15
      1.15              -25.57          33.09          11.29           65.4         -4.989         0.5972          60.61         0.4062         -91.03          109.1          86.12
       1.2              -25.55          33.09          11.33          65.38           -5.0         0.6069           60.5         0.4288         -90.83          109.0          86.08
      1.25              -25.54          33.09          11.37          65.36         -5.013         0.6177          60.38          0.454         -90.61          109.0          86.04
       1.3              -25.52          33.09          11.42          65.34         -5.028         0.6298          60.25         0.4823         -90.36          108.9           86.0
      1.35               -25.5          33.09          11.47          65.32         -5.045         0.6434           60.1         0.5141         -90.08          108.8          85.94
       1.4              -25.48          33.09          11.53          65.29         -5.063         0.6587          59.93           0.55         -89.77          108.7          85.89
      1.45              -25.46          33.09          11.59          65.26         -5.084         0.6762          59.74         0.5908         -89.41          108.6          85.82
       1.5              -25.43          33.09          11.67          65.22         -5.109         0.6961          59.52         0.6374          -89.0          108.4          85.74
      1.55               -25.4          33.09          11.75          65.18         -5.136          0.719          59.27         0.6908         -88.53          108.3          85.66
       1.6              -25.37          33.09          11.85          65.13         -5.168         0.7454          58.98         0.7525         -87.99          108.1          85.56
      1.65              -25.32          33.09          11.97          65.08         -5.206          0.776          58.64         0.8242         -87.36          107.9          85.44
       1.7              -25.28          33.09           12.1          65.01         -5.249         0.8119          58.25         0.9081         -86.63          107.6           85.3
     1.749              -25.22          33.09          12.26          64.94           -5.3         0.8542          57.78          1.007         -85.76          107.3          85.14
     1.799              -25.15          33.09          12.45          64.85         -5.361         0.9045          57.23          1.125         -84.73          107.0          84.95
     1.849              -25.07          33.09          12.68          64.74         -5.434         0.9647          56.57          1.265         -83.49          106.5          84.72
